<svg
  viewBox="0 0 32 32"
  fill="none"
  xmlns="http://www.w3.org/2000/svg"
>
  <path
    d="M16 4C9.373 4 4 9.373 4 16C4 22.627 9.373 28 16 28C22.627 28 28 22.627 28 16C28 9.373 22.627 4 16 4ZM16 6C21.523 6 26 10.477 26 16C26 21.523 21.523 26 16 26C10.477 26 6 21.523 6 16C6 10.477 10.477 6 16 6Z"
    fill="#10A37F"
  />
  <path
    d="M16 8C10.477 8 6 12.477 6 18C6 23.523 10.477 28 16 28"
    stroke="#10A37F"
    stroke-width="2"
    stroke-linecap="round"
  />
  <circle
    cx="16"
    cy="16"
    r="4"
    fill="#10A37F"
  />
  <path
    d="M16 2L16 6"
    stroke="#10A37F"
    stroke-width="2"
    stroke-linecap="round"
  />
</svg>
